<svg width="124" height="124" viewBox="0 0 124 124" fill="none" xmlns="http://www.w3.org/2000/svg">
<g clip-path="url(#clip0_65_4921)">
<path d="M62.2734 124.547C96.6661 124.547 124.547 96.6661 124.547 62.2734C124.547 27.8808 96.6661 0 62.2734 0C27.8808 0 0 27.8808 0 62.2734C0 96.6661 27.8808 124.547 62.2734 124.547Z" fill="#25935F"/>
<path d="M46.3613 90.3656L78.382 122.386C104.902 115.314 124.547 91.1514 124.547 62.2738C124.547 61.6845 124.547 61.0952 124.547 60.5058L99.4018 37.3252L46.3613 90.3656Z" fill="#1B8354"/>
<path d="M63.8451 76.2215C66.5953 78.9717 66.5953 83.6864 63.8451 86.4366L58.1482 92.1336C55.3979 94.8838 50.6832 94.8838 47.933 92.1336L22.9843 66.9885C20.2341 64.2382 20.2341 59.5235 22.9843 56.7733L28.6813 51.0764C31.4315 48.3261 36.1462 48.3261 38.8964 51.0764L63.8451 76.2215Z" fill="white"/>
<path d="M85.6506 32.8068C88.4008 30.0566 93.1155 30.0566 95.8658 32.8068L101.563 38.5038C104.313 41.254 104.313 45.9687 101.563 48.719L58.3446 91.7406C55.5943 94.4909 50.8796 94.4909 48.1294 91.7406L42.4324 86.0437C39.6822 83.2935 39.6822 78.5788 42.4324 75.8285L85.6506 32.8068Z" fill="white"/>
</g>
<defs>
<clipPath id="clip0_65_4921">
<rect width="124.547" height="124.547" fill="white"/>
</clipPath>
</defs>
</svg>
