<svg width="126" height="125" viewBox="0 0 126 125" fill="none" xmlns="http://www.w3.org/2000/svg">
<g clip-path="url(#clip0_16_508)">
<path d="M63 124.547C97.3926 124.547 125.273 96.6661 125.273 62.2734C125.273 27.8808 97.3926 0 63 0C28.6073 0 0.726562 27.8808 0.726562 62.2734C0.726562 96.6661 28.6073 124.547 63 124.547Z" fill="#25935F"/>
<path d="M47.0879 90.3656L79.1086 122.386C105.629 115.314 125.273 91.1514 125.273 62.2738C125.273 61.6845 125.273 61.0952 125.273 60.5058L100.128 37.3252L47.0879 90.3656Z" fill="#1B8354"/>
<path d="M64.5715 76.2212C67.3218 78.9715 67.3218 83.6862 64.5715 86.4364L58.8746 92.1333C56.1244 94.8836 51.4097 94.8836 48.6594 92.1333L23.7108 66.9882C20.9605 64.238 20.9605 59.5233 23.7108 56.773L29.4077 51.0761C32.1579 48.3259 36.8726 48.3259 39.6229 51.0761L64.5715 76.2212Z" fill="white"/>
<path d="M86.377 32.8068C89.1273 30.0566 93.842 30.0566 96.5922 32.8068L102.289 38.5038C105.039 41.254 105.039 45.9687 102.289 48.719L59.071 91.7406C56.3208 94.4909 51.6061 94.4909 48.8558 91.7406L43.1589 86.0437C40.4086 83.2935 40.4086 78.5788 43.1589 75.8285L86.377 32.8068Z" fill="white"/>
</g>
<defs>
<clipPath id="clip0_16_508">
<rect width="124.547" height="124.547" fill="white" transform="translate(0.726562)"/>
</clipPath>
</defs>
</svg>
