<svg width="24" height="24" viewBox="0 0 24 24" fill="none" xmlns="http://www.w3.org/2000/svg">
<path d="M7.76965 7H10.0001C10.2739 7.00006 10.5001 7.22618 10.5001 7.5V10.75H8.00012C7.31398 10.75 6.75012 11.3139 6.75012 12C6.75012 12.6861 7.31398 13.25 8.00012 13.25H10.5001V16.5C10.5001 16.7738 10.2739 16.9999 10.0001 17H7.50012C6.12022 17 4.87488 16.4382 3.96301 15.5361H3.96399C3.1003 14.6724 2.55423 13.5012 2.49915 12.2012H2.50012C2.3921 9.37459 4.87261 7.0002 7.76965 7Z" fill="#0E486D" stroke="#0E486D"/>
<path d="M14 7H16.5C17.8784 7 19.1226 7.56052 20.0342 8.46094V8.46191C20.8917 9.3286 21.4449 10.5016 21.4902 11.7979V11.8008C21.6071 14.6257 19.1278 16.9997 16.2305 17H14C13.7261 17 13.5 16.7739 13.5 16.5V13.25H16C16.6861 13.25 17.25 12.6861 17.25 12C17.25 11.3139 16.6861 10.75 16 10.75H13.5V7.5C13.5 7.22614 13.7261 7 14 7Z" fill="#0E486D" stroke="#0E486D"/>
<path d="M12.5 11.75V12.25H11.5V11.75H12.5Z" fill="#0E486D" stroke="#0E486D"/>
</svg>
