<svg width="151" height="43" viewBox="0 0 151 43" fill="none" xmlns="http://www.w3.org/2000/svg">
<path d="M10.125 35H0.820312V1.25H10.125V17.3281C13 15.125 15.6797 12.6797 18.1641 9.99219C20.6641 7.30469 22.8125 4.38281 24.6094 1.22656H30.9609C29.3047 4.05469 27.4062 6.69531 25.2656 9.14844C23.125 11.6016 20.7969 13.875 18.2812 15.9688L31.7578 35H22.0547L11.9062 20.6562C11.6094 20.8594 11.3125 21.0547 11.0156 21.2422C10.7344 21.4297 10.4375 21.6172 10.125 21.8047V35Z" fill="#F3F8FB"/>
<path d="M44.8125 35H35.5078V1.25H44.8125V17.3281C47.6875 15.125 50.3672 12.6797 52.8516 9.99219C55.3516 7.30469 57.5 4.38281 59.2969 1.22656H65.6484C63.9922 4.05469 62.0938 6.69531 59.9531 9.14844C57.8125 11.6016 55.4844 13.875 52.9688 15.9688L66.4453 35H56.7422L46.5938 20.6562C46.2969 20.8594 46 21.0547 45.7031 21.2422C45.4219 21.4297 45.125 21.6172 44.8125 21.8047V35Z" fill="#F3F8FB"/>
<path d="M76.9219 9.82812L74.2969 35H68.5547L74.2969 1.25H82.8047L90.7031 27.0078L98.6953 1.25H107.203L111.984 35H102.516L99.7266 10.4844L93.1406 35H84.6328L76.9219 9.82812Z" fill="#F3F8FB"/>
<path d="M150.281 18.8516V19.2969C150.25 20.6094 150.109 21.9688 149.859 23.375C149.625 24.7812 149.289 26.1875 148.852 27.5938C148.414 29 147.891 30.3906 147.281 31.7656C146.672 33.1406 145.984 34.4531 145.219 35.7031C144.469 36.9688 143.656 38.1484 142.781 39.2422C141.906 40.3516 140.984 41.3281 140.016 42.1719L136.523 40.1562C137.07 39.2344 137.562 38.2266 138 37.1328C138.453 36.0547 138.859 34.9219 139.219 33.7344C139.578 32.5469 139.883 31.3281 140.133 30.0781C140.398 28.8281 140.617 27.5859 140.789 26.3516C140.961 25.1172 141.086 23.9062 141.164 22.7188C141.258 21.5156 141.305 20.375 141.305 19.2969C141.305 18.4531 141.297 17.5 141.281 16.4375C141.281 15.3594 141.219 14.2656 141.094 13.1562C140.984 12.0469 140.797 10.9688 140.531 9.92188C140.266 8.85938 139.867 7.91406 139.336 7.08594C138.82 6.25781 138.148 5.59375 137.32 5.09375C136.508 4.59375 135.492 4.34375 134.273 4.34375C133.195 4.34375 132.266 4.53125 131.484 4.90625C130.719 5.26562 130.062 5.75781 129.516 6.38281C128.984 6.99219 128.555 7.70312 128.227 8.51562C127.914 9.32812 127.664 10.1875 127.477 11.0938C127.305 11.9844 127.188 12.8906 127.125 13.8125C127.078 14.7188 127.055 15.5781 127.055 16.3906V22.9297H137.156V26.7969H127.055V35H117.75V17.8438C117.75 15.3906 118.141 13.1094 118.922 11C119.703 8.89062 120.805 7.0625 122.227 5.51562C123.664 3.95312 125.383 2.73438 127.383 1.85938C129.398 0.96875 131.641 0.523438 134.109 0.523438C135.781 0.523438 137.344 0.765625 138.797 1.25C140.266 1.71875 141.602 2.375 142.805 3.21875C144.008 4.04688 145.078 5.03906 146.016 6.19531C146.969 7.33594 147.758 8.58594 148.383 9.94531C149.023 11.3047 149.508 12.7422 149.836 14.2578C150.164 15.7734 150.312 17.3047 150.281 18.8516Z" fill="#F3F8FB"/>
</svg>
