<svg width="24" height="24" viewBox="0 0 24 24" fill="none" xmlns="http://www.w3.org/2000/svg">
<path d="M12 2.75C14.2058 2.75 16 4.54421 16 6.75C15.9901 8.91794 14.2979 10.6645 12.1436 10.7402H12.1426C12.0562 10.7316 11.9701 10.734 11.8896 10.7393C9.67629 10.655 8 8.90531 8 6.75C8 4.54421 9.79421 2.75 12 2.75Z" fill="#0E486D" stroke="#0E486D" stroke-width="1.5"/>
<path d="M12.0127 13.505C13.7358 13.505 15.4177 13.9427 16.6641 14.7736C17.6992 15.4637 18.2155 16.3248 18.2822 17.1925L18.29 17.3663C18.2877 18.2927 17.7685 19.2202 16.6602 19.9679C15.409 20.8074 13.7237 21.2501 12 21.2501C10.2756 21.2501 8.58922 20.8071 7.33789 19.9669L7.33594 19.9659C6.22754 19.227 5.70996 18.2976 5.70996 17.38C5.70996 16.4623 6.22758 15.5237 7.34375 14.7755C8.60127 13.9431 10.2897 13.505 12.0127 13.505Z" fill="#0E486D" stroke="#0E486D" stroke-width="1.5"/>
</svg>
