<svg width="18" height="18" viewBox="0 0 18 18" fill="none" xmlns="http://www.w3.org/2000/svg">
<path fill-rule="evenodd" clip-rule="evenodd" d="M8.16669 0.0415039C3.67937 0.0415039 0.041687 3.67919 0.041687 8.1665C0.041687 12.6538 3.67937 16.2915 8.16669 16.2915C10.1854 16.2915 12.0321 15.5553 13.4531 14.3368L16.8914 17.7751C17.1355 18.0192 17.5312 18.0192 17.7753 17.7751C18.0194 17.531 18.0194 17.1353 17.7753 16.8912L14.337 13.4529C15.5555 12.0319 16.2917 10.1852 16.2917 8.1665C16.2917 3.67919 12.654 0.0415039 8.16669 0.0415039ZM1.29169 8.1665C1.29169 4.36955 4.36973 1.2915 8.16669 1.2915C11.9636 1.2915 15.0417 4.36955 15.0417 8.1665C15.0417 11.9635 11.9636 15.0415 8.16669 15.0415C4.36973 15.0415 1.29169 11.9635 1.29169 8.1665Z" fill="#161616"/>
</svg>
